# xmcd
#
# Track frame offsets: 
#        150
#        11192
#        21562
#        34552
#        46842
#        58762
#        69712
#        82070
#        93045
#        104215
#        116502
#        128430
#        141615
#        153480
#        164012
#        178772
#        190965
#        202387
#        214890
#
# Disc length: 3016 seconds
#
# Revision: 0
# Processed by: cddbd v1.5.2PL0 Copyright (c) Steve Scherf et al.
# Submitted via: ExactAudioCopy v0.99pb5
#
DISCID=260bc613
DTITLE=Jackie And The Starlites - Valerie
DYEAR=1900
DGENRE=Doo Wop
TTITLE0=Valerie
TTITLE1=Way Up In The Sky
TTITLE2=Ain't ' Cha Ever Coming Home
TTITLE3=Silver Lining
TTITLE4=I Found Out Too Late
TTITLE5=I'm Coming Home
TTITLE6=Don't Be Afraid
TTITLE7=Seven Day Fool
TTITLE8=I Cried My Heart Out
TTITLE9=No More Hurt
TTITLE10=I Still Remember
TTITLE11=Let Him Go
TTITLE12=I'll Cry 1000 Tears
TTITLE13=For All We Know
TTITLE14=They Laughed At Me
TTITLE15=You Put One Over On Me
TTITLE16=Walking From School
TTITLE17=I Burned Your Letter
TTITLE18=You Keep Telling
EXTD=
EXTT0=
EXTT1=
EXTT2=
EXTT3=
EXTT4=
EXTT5=
EXTT6=
EXTT7=
EXTT8=
EXTT9=
EXTT10=
EXTT11=
EXTT12=
EXTT13=
EXTT14=
EXTT15=
EXTT16=
EXTT17=
EXTT18=
PLAYORDER=
